<?xml version="1.0" encoding="UTF-8" standalone="no"?>
<!DOCTYPE svg PUBLIC "-//W3C//DTD SVG 1.1//EN"
 "http://www.w3.org/Graphics/SVG/1.1/DTD/svg11.dtd">
<!-- Generated by graphviz version 2.43.0 (0)
 -->
<!-- Title: %3 Pages: 1 -->
<svg width="358pt" height="323pt"
 viewBox="0.00 0.00 358.00 323.00" xmlns="http://www.w3.org/2000/svg" xmlns:xlink="http://www.w3.org/1999/xlink">
<g id="graph0" class="graph" transform="scale(1 1) rotate(0) translate(4 319)">
<title>%3</title>
<polygon fill="white" stroke="transparent" points="-4,4 -4,-319 354,-319 354,4 -4,4"/>
<g id="clust1" class="cluster">
<title>cluster_DataFramePipeline#39</title>
<polygon fill="lightgrey" stroke="lightgrey" points="8,-8 8,-307 342,-307 342,-8 8,-8"/>
</g>
<g id="clust2" class="cluster">
<title>cluster_ApplyFitTransform#3</title>
<polygon fill="white" stroke="white" points="57,-16 57,-151 293,-151 293,-16 57,-16"/>
</g>
<!-- DataFramePipeline#39 -->
<g id="node1" class="node">
<title>DataFramePipeline#39</title>
<polygon fill="white" stroke="white" points="243.5,-299 106.5,-299 106.5,-263 243.5,-263 243.5,-299"/>
<text text-anchor="middle" x="175" y="-278.5" font-family="Monospace" font-size="10.00">DataFramePipeline#39</text>
</g>
<!-- Filter#2 -->
<g id="node2" class="node">
<title>Filter#2</title>
<polygon fill="white" stroke="white" points="333.5,-216 16.5,-216 16.5,-180 333.5,-180 333.5,-216"/>
<text text-anchor="middle" x="175" y="-201" font-family="Monospace" font-size="10.00">Filter#2</text>
<text text-anchor="middle" x="175" y="-190" font-family="Monospace" font-size="10.00">filter_fun = &lt;function &lt;lambda&gt; at 0x7f0078f303a0&gt;</text>
</g>
<!-- DataFramePipeline#39&#45;&gt;Filter#2 -->
<g id="edge1" class="edge">
<title>DataFramePipeline#39&#45;&gt;Filter#2</title>
<path fill="none" stroke="black" d="M175,-262.82C175,-252.19 175,-238.31 175,-226.2"/>
<polygon fill="black" stroke="black" points="178.5,-226.15 175,-216.15 171.5,-226.15 178.5,-226.15"/>
<text text-anchor="middle" x="205.5" y="-237" font-family="Monospace" font-size="10.00">transforms</text>
</g>
<!-- ApplyFitTransform#3 -->
<g id="node3" class="node">
<title>ApplyFitTransform#3</title>
<polygon fill="lightgrey" stroke="lightgrey" points="240.5,-143 109.5,-143 109.5,-107 240.5,-107 240.5,-143"/>
<text text-anchor="middle" x="175" y="-122.5" font-family="Monospace" font-size="10.00">ApplyFitTransform#3</text>
</g>
<!-- Filter#2&#45;&gt;ApplyFitTransform#3 -->
<g id="edge3" class="edge">
<title>Filter#2&#45;&gt;ApplyFitTransform#3</title>
<path fill="none" stroke="black" d="M175,-179.81C175,-171.79 175,-162.05 175,-153.07"/>
<polygon fill="black" stroke="black" points="178.5,-153.03 175,-143.03 171.5,-153.03 178.5,-153.03"/>
</g>
<!-- DataFramePipeline#24 -->
<g id="node4" class="node">
<title>DataFramePipeline#24</title>
<polygon fill="lightgrey" stroke="lightgrey" points="285.5,-60 64.5,-60 64.5,-24 285.5,-24 285.5,-60"/>
<text text-anchor="middle" x="175" y="-39.5" font-family="Monospace" font-size="10.00">FitTransform: DataFramePipeline#24</text>
</g>
<!-- ApplyFitTransform#3&#45;&gt;DataFramePipeline#24 -->
<g id="edge2" class="edge">
<title>ApplyFitTransform#3&#45;&gt;DataFramePipeline#24</title>
<path fill="none" stroke="black" d="M175,-106.82C175,-96.19 175,-82.31 175,-70.2"/>
<polygon fill="black" stroke="black" points="178.5,-70.15 175,-60.15 171.5,-70.15 178.5,-70.15"/>
<text text-anchor="middle" x="214.5" y="-81" font-family="Monospace" font-size="10.00">fit_transform</text>
</g>
</g>
</svg>
