<?xml version="1.0" encoding="UTF-8" standalone="no"?>
<!DOCTYPE svg PUBLIC "-//W3C//DTD SVG 1.1//EN"
 "http://www.w3.org/Graphics/SVG/1.1/DTD/svg11.dtd">
<!-- Generated by graphviz version 2.43.0 (0)
 -->
<!-- Title: %3 Pages: 1 -->
<svg width="472pt" height="749pt"
 viewBox="0.00 0.00 472.00 749.00" xmlns="http://www.w3.org/2000/svg" xmlns:xlink="http://www.w3.org/1999/xlink">
<g id="graph0" class="graph" transform="scale(1 1) rotate(0) translate(4 745)">
<title>%3</title>
<polygon fill="white" stroke="transparent" points="-4,4 -4,-745 468,-745 468,4 -4,4"/>
<g id="clust1" class="cluster">
<title>cluster_DataFramePipeline#24</title>
<polygon fill="lightgrey" stroke="lightgrey" points="8,-8 8,-733 456,-733 456,-8 8,-8"/>
</g>
<!-- DataFramePipeline#24 -->
<g id="node1" class="node">
<title>DataFramePipeline#24</title>
<polygon fill="white" stroke="white" points="300.5,-725 163.5,-725 163.5,-689 300.5,-689 300.5,-725"/>
<text text-anchor="middle" x="232" y="-704.5" font-family="Monospace" font-size="10.00">DataFramePipeline#24</text>
</g>
<!-- Copy#2 -->
<g id="node2" class="node">
<title>Copy#2</title>
<polygon fill="white" stroke="white" points="321.5,-642 142.5,-642 142.5,-601 321.5,-601 321.5,-642"/>
<text text-anchor="middle" x="232" y="-630" font-family="Monospace" font-size="10.00">Copy#2</text>
<text text-anchor="middle" x="232" y="-619" font-family="Monospace" font-size="10.00">cols = [&#39;price&#39;],</text>
<text text-anchor="middle" x="232" y="-608" font-family="Monospace" font-size="10.00">dest_cols = [&#39;price_train&#39;]</text>
</g>
<!-- DataFramePipeline#24&#45;&gt;Copy#2 -->
<g id="edge1" class="edge">
<title>DataFramePipeline#24&#45;&gt;Copy#2</title>
<path fill="none" stroke="black" d="M232,-688.7C232,-678.21 232,-664.53 232,-652.34"/>
<polygon fill="black" stroke="black" points="235.5,-652.12 232,-642.12 228.5,-652.12 235.5,-652.12"/>
<text text-anchor="middle" x="262.5" y="-663" font-family="Monospace" font-size="10.00">transforms</text>
</g>
<!-- Winsorize#8 -->
<g id="node3" class="node">
<title>Winsorize#8</title>
<polygon fill="white" stroke="white" points="309.5,-564 154.5,-564 154.5,-523 309.5,-523 309.5,-564"/>
<text text-anchor="middle" x="232" y="-552" font-family="Monospace" font-size="10.00">Winsorize#8</text>
<text text-anchor="middle" x="232" y="-541" font-family="Monospace" font-size="10.00">cols = [&#39;price_train&#39;],</text>
<text text-anchor="middle" x="232" y="-530" font-family="Monospace" font-size="10.00">limit = 0.05</text>
</g>
<!-- Copy#2&#45;&gt;Winsorize#8 -->
<g id="edge2" class="edge">
<title>Copy#2&#45;&gt;Winsorize#8</title>
<path fill="none" stroke="black" d="M232,-600.93C232,-592.77 232,-583.12 232,-574.13"/>
<polygon fill="black" stroke="black" points="235.5,-574.01 232,-564.01 228.5,-574.01 235.5,-574.01"/>
</g>
<!-- Pipe#8 -->
<g id="node4" class="node">
<title>Pipe#8</title>
<polygon fill="white" stroke="white" points="321.5,-486 142.5,-486 142.5,-445 321.5,-445 321.5,-486"/>
<text text-anchor="middle" x="232" y="-474" font-family="Monospace" font-size="10.00">Pipe#8</text>
<text text-anchor="middle" x="232" y="-463" font-family="Monospace" font-size="10.00">cols = [&#39;price_train&#39;],</text>
<text text-anchor="middle" x="232" y="-452" font-family="Monospace" font-size="10.00">apply_fun = &lt;ufunc &#39;log1p&#39;&gt;</text>
</g>
<!-- Winsorize#8&#45;&gt;Pipe#8 -->
<g id="edge3" class="edge">
<title>Winsorize#8&#45;&gt;Pipe#8</title>
<path fill="none" stroke="black" d="M232,-522.93C232,-514.77 232,-505.12 232,-496.13"/>
<polygon fill="black" stroke="black" points="235.5,-496.01 232,-486.01 228.5,-496.01 235.5,-496.01"/>
</g>
<!-- Winsorize#9 -->
<g id="node5" class="node">
<title>Winsorize#9</title>
<polygon fill="white" stroke="white" points="345.5,-408 118.5,-408 118.5,-367 345.5,-367 345.5,-408"/>
<text text-anchor="middle" x="232" y="-396" font-family="Monospace" font-size="10.00">Winsorize#9</text>
<text text-anchor="middle" x="232" y="-385" font-family="Monospace" font-size="10.00">cols = [&#39;carat&#39;, &#39;table&#39;, &#39;depth&#39;],</text>
<text text-anchor="middle" x="232" y="-374" font-family="Monospace" font-size="10.00">limit = 0.05</text>
</g>
<!-- Pipe#8&#45;&gt;Winsorize#9 -->
<g id="edge4" class="edge">
<title>Pipe#8&#45;&gt;Winsorize#9</title>
<path fill="none" stroke="black" d="M232,-444.93C232,-436.77 232,-427.12 232,-418.13"/>
<polygon fill="black" stroke="black" points="235.5,-418.01 232,-408.01 228.5,-418.01 235.5,-418.01"/>
</g>
<!-- Pipe#9 -->
<g id="node6" class="node">
<title>Pipe#9</title>
<polygon fill="white" stroke="white" points="321.5,-330 142.5,-330 142.5,-289 321.5,-289 321.5,-330"/>
<text text-anchor="middle" x="232" y="-318" font-family="Monospace" font-size="10.00">Pipe#9</text>
<text text-anchor="middle" x="232" y="-307" font-family="Monospace" font-size="10.00">cols = [&#39;carat&#39;],</text>
<text text-anchor="middle" x="232" y="-296" font-family="Monospace" font-size="10.00">apply_fun = &lt;ufunc &#39;log1p&#39;&gt;</text>
</g>
<!-- Winsorize#9&#45;&gt;Pipe#9 -->
<g id="edge5" class="edge">
<title>Winsorize#9&#45;&gt;Pipe#9</title>
<path fill="none" stroke="black" d="M232,-366.93C232,-358.77 232,-349.12 232,-340.13"/>
<polygon fill="black" stroke="black" points="235.5,-340.01 232,-330.01 228.5,-340.01 235.5,-340.01"/>
</g>
<!-- ZScore#4 -->
<g id="node7" class="node">
<title>ZScore#4</title>
<polygon fill="white" stroke="white" points="342.5,-252 121.5,-252 121.5,-216 342.5,-216 342.5,-252"/>
<text text-anchor="middle" x="232" y="-237" font-family="Monospace" font-size="10.00">ZScore#4</text>
<text text-anchor="middle" x="232" y="-226" font-family="Monospace" font-size="10.00">cols = [&#39;carat&#39;, &#39;table&#39;, &#39;depth&#39;]</text>
</g>
<!-- Pipe#9&#45;&gt;ZScore#4 -->
<g id="edge6" class="edge">
<title>Pipe#9&#45;&gt;ZScore#4</title>
<path fill="none" stroke="black" d="M232,-288.8C232,-280.7 232,-271.18 232,-262.41"/>
<polygon fill="black" stroke="black" points="235.5,-262.25 232,-252.25 228.5,-262.25 235.5,-262.25"/>
</g>
<!-- SKLearn#4 -->
<g id="node8" class="node">
<title>SKLearn#4</title>
<polygon fill="white" stroke="white" points="447.5,-179 16.5,-179 16.5,-94 447.5,-94 447.5,-179"/>
<text text-anchor="middle" x="232" y="-167" font-family="Monospace" font-size="10.00">SKLearn#4</text>
<text text-anchor="middle" x="232" y="-156" font-family="Monospace" font-size="10.00">x_cols = [&#39;carat&#39;, &#39;table&#39;, &#39;depth&#39;],</text>
<text text-anchor="middle" x="232" y="-145" font-family="Monospace" font-size="10.00">hat_col = HPFmtStr(name=&#39;price_hat&#39;),</text>
<text text-anchor="middle" x="232" y="-134" font-family="Monospace" font-size="10.00">class_params = {&#39;fit_intercept&#39;: True},</text>
<text text-anchor="middle" x="232" y="-123" font-family="Monospace" font-size="10.00">response_col = HPFmtStr(name=&#39;price_train&#39;),</text>
<text text-anchor="middle" x="232" y="-112" font-family="Monospace" font-size="10.00">w_col = &#39;&#39;,</text>
<text text-anchor="middle" x="232" y="-101" font-family="Monospace" font-size="10.00">sklearn_class = &lt;class &#39;sklearn.linear_model._base.LinearRegression&#39;&gt;</text>
</g>
<!-- ZScore#4&#45;&gt;SKLearn#4 -->
<g id="edge7" class="edge">
<title>ZScore#4&#45;&gt;SKLearn#4</title>
<path fill="none" stroke="black" d="M232,-215.93C232,-208.28 232,-198.82 232,-189.14"/>
<polygon fill="black" stroke="black" points="235.5,-189.04 232,-179.04 228.5,-189.04 235.5,-189.04"/>
</g>
<!-- Pipe#10 -->
<g id="node9" class="node">
<title>Pipe#10</title>
<polygon fill="white" stroke="white" points="321.5,-57 142.5,-57 142.5,-16 321.5,-16 321.5,-57"/>
<text text-anchor="middle" x="232" y="-45" font-family="Monospace" font-size="10.00">Pipe#10</text>
<text text-anchor="middle" x="232" y="-34" font-family="Monospace" font-size="10.00">cols = [&#39;price_hat&#39;],</text>
<text text-anchor="middle" x="232" y="-23" font-family="Monospace" font-size="10.00">apply_fun = &lt;ufunc &#39;expm1&#39;&gt;</text>
</g>
<!-- SKLearn#4&#45;&gt;Pipe#10 -->
<g id="edge8" class="edge">
<title>SKLearn#4&#45;&gt;Pipe#10</title>
<path fill="none" stroke="black" d="M232,-93.94C232,-84.99 232,-75.7 232,-67.3"/>
<polygon fill="black" stroke="black" points="235.5,-67.24 232,-57.24 228.5,-67.24 235.5,-67.24"/>
</g>
</g>
</svg>
