<?xml version="1.0" encoding="UTF-8" standalone="no"?>
<!DOCTYPE svg PUBLIC "-//W3C//DTD SVG 1.1//EN"
 "http://www.w3.org/Graphics/SVG/1.1/DTD/svg11.dtd">
<!-- Generated by graphviz version 2.43.0 (0)
 -->
<!-- Title: %3 Pages: 1 -->
<svg width="476pt" height="749pt"
 viewBox="0.00 0.00 476.00 749.00" xmlns="http://www.w3.org/2000/svg" xmlns:xlink="http://www.w3.org/1999/xlink">
<g id="graph0" class="graph" transform="scale(1 1) rotate(0) translate(4 745)">
<title>%3</title>
<polygon fill="white" stroke="transparent" points="-4,4 -4,-745 472,-745 472,4 -4,4"/>
<g id="clust1" class="cluster">
<title>cluster_DataFramePipeline#24</title>
<polygon fill="lightgrey" stroke="lightgrey" points="8,-8 8,-733 460,-733 460,-8 8,-8"/>
</g>
<!-- DataFramePipeline#24 -->
<g id="node1" class="node">
<title>DataFramePipeline#24</title>
<polygon fill="white" stroke="white" points="302.5,-725 165.5,-725 165.5,-689 302.5,-689 302.5,-725"/>
<text text-anchor="middle" x="234" y="-704.5" font-family="Monospace" font-size="10.00">DataFramePipeline#24</text>
</g>
<!-- Copy#2 -->
<g id="node2" class="node">
<title>Copy#2</title>
<polygon fill="white" stroke="white" points="323.5,-642 144.5,-642 144.5,-601 323.5,-601 323.5,-642"/>
<text text-anchor="middle" x="234" y="-630" font-family="Monospace" font-size="10.00">Copy#2</text>
<text text-anchor="middle" x="234" y="-619" font-family="Monospace" font-size="10.00">cols = [&#39;price&#39;],</text>
<text text-anchor="middle" x="234" y="-608" font-family="Monospace" font-size="10.00">dest_cols = [&#39;price_train&#39;]</text>
</g>
<!-- DataFramePipeline#24&#45;&gt;Copy#2 -->
<g id="edge1" class="edge">
<title>DataFramePipeline#24&#45;&gt;Copy#2</title>
<path fill="none" stroke="black" d="M234,-688.7C234,-678.21 234,-664.53 234,-652.34"/>
<polygon fill="black" stroke="black" points="237.5,-652.12 234,-642.12 230.5,-652.12 237.5,-652.12"/>
<text text-anchor="middle" x="264.5" y="-663" font-family="Monospace" font-size="10.00">transforms</text>
</g>
<!-- Winsorize#8 -->
<g id="node3" class="node">
<title>Winsorize#8</title>
<polygon fill="white" stroke="white" points="308.5,-564 159.5,-564 159.5,-523 308.5,-523 308.5,-564"/>
<text text-anchor="middle" x="234" y="-552" font-family="Monospace" font-size="10.00">Winsorize#8</text>
<text text-anchor="middle" x="234" y="-541" font-family="Monospace" font-size="10.00">limit = 0.05,</text>
<text text-anchor="middle" x="234" y="-530" font-family="Monospace" font-size="10.00">cols = [&#39;price_train&#39;]</text>
</g>
<!-- Copy#2&#45;&gt;Winsorize#8 -->
<g id="edge2" class="edge">
<title>Copy#2&#45;&gt;Winsorize#8</title>
<path fill="none" stroke="black" d="M234,-600.93C234,-592.77 234,-583.12 234,-574.13"/>
<polygon fill="black" stroke="black" points="237.5,-574.01 234,-564.01 230.5,-574.01 237.5,-574.01"/>
</g>
<!-- Pipe#8 -->
<g id="node4" class="node">
<title>Pipe#8</title>
<polygon fill="white" stroke="white" points="326.5,-486 141.5,-486 141.5,-445 326.5,-445 326.5,-486"/>
<text text-anchor="middle" x="234" y="-474" font-family="Monospace" font-size="10.00">Pipe#8</text>
<text text-anchor="middle" x="234" y="-463" font-family="Monospace" font-size="10.00">apply_fun = &lt;ufunc &#39;log1p&#39;&gt;,</text>
<text text-anchor="middle" x="234" y="-452" font-family="Monospace" font-size="10.00">cols = [&#39;price_train&#39;]</text>
</g>
<!-- Winsorize#8&#45;&gt;Pipe#8 -->
<g id="edge3" class="edge">
<title>Winsorize#8&#45;&gt;Pipe#8</title>
<path fill="none" stroke="black" d="M234,-522.93C234,-514.77 234,-505.12 234,-496.13"/>
<polygon fill="black" stroke="black" points="237.5,-496.01 234,-486.01 230.5,-496.01 237.5,-496.01"/>
</g>
<!-- Winsorize#9 -->
<g id="node5" class="node">
<title>Winsorize#9</title>
<polygon fill="white" stroke="white" points="344.5,-408 123.5,-408 123.5,-367 344.5,-367 344.5,-408"/>
<text text-anchor="middle" x="234" y="-396" font-family="Monospace" font-size="10.00">Winsorize#9</text>
<text text-anchor="middle" x="234" y="-385" font-family="Monospace" font-size="10.00">limit = 0.05,</text>
<text text-anchor="middle" x="234" y="-374" font-family="Monospace" font-size="10.00">cols = [&#39;carat&#39;, &#39;table&#39;, &#39;depth&#39;]</text>
</g>
<!-- Pipe#8&#45;&gt;Winsorize#9 -->
<g id="edge4" class="edge">
<title>Pipe#8&#45;&gt;Winsorize#9</title>
<path fill="none" stroke="black" d="M234,-444.93C234,-436.77 234,-427.12 234,-418.13"/>
<polygon fill="black" stroke="black" points="237.5,-418.01 234,-408.01 230.5,-418.01 237.5,-418.01"/>
</g>
<!-- Pipe#9 -->
<g id="node6" class="node">
<title>Pipe#9</title>
<polygon fill="white" stroke="white" points="326.5,-330 141.5,-330 141.5,-289 326.5,-289 326.5,-330"/>
<text text-anchor="middle" x="234" y="-318" font-family="Monospace" font-size="10.00">Pipe#9</text>
<text text-anchor="middle" x="234" y="-307" font-family="Monospace" font-size="10.00">apply_fun = &lt;ufunc &#39;log1p&#39;&gt;,</text>
<text text-anchor="middle" x="234" y="-296" font-family="Monospace" font-size="10.00">cols = [&#39;carat&#39;]</text>
</g>
<!-- Winsorize#9&#45;&gt;Pipe#9 -->
<g id="edge5" class="edge">
<title>Winsorize#9&#45;&gt;Pipe#9</title>
<path fill="none" stroke="black" d="M234,-366.93C234,-358.77 234,-349.12 234,-340.13"/>
<polygon fill="black" stroke="black" points="237.5,-340.01 234,-330.01 230.5,-340.01 237.5,-340.01"/>
</g>
<!-- ZScore#4 -->
<g id="node7" class="node">
<title>ZScore#4</title>
<polygon fill="white" stroke="white" points="344.5,-252 123.5,-252 123.5,-216 344.5,-216 344.5,-252"/>
<text text-anchor="middle" x="234" y="-237" font-family="Monospace" font-size="10.00">ZScore#4</text>
<text text-anchor="middle" x="234" y="-226" font-family="Monospace" font-size="10.00">cols = [&#39;carat&#39;, &#39;table&#39;, &#39;depth&#39;]</text>
</g>
<!-- Pipe#9&#45;&gt;ZScore#4 -->
<g id="edge6" class="edge">
<title>Pipe#9&#45;&gt;ZScore#4</title>
<path fill="none" stroke="black" d="M234,-288.8C234,-280.7 234,-271.18 234,-262.41"/>
<polygon fill="black" stroke="black" points="237.5,-262.25 234,-252.25 230.5,-262.25 237.5,-262.25"/>
</g>
<!-- SKLearn#4 -->
<g id="node8" class="node">
<title>SKLearn#4</title>
<polygon fill="white" stroke="white" points="452.5,-179 15.5,-179 15.5,-94 452.5,-94 452.5,-179"/>
<text text-anchor="middle" x="234" y="-167" font-family="Monospace" font-size="10.00">SKLearn#4</text>
<text text-anchor="middle" x="234" y="-156" font-family="Monospace" font-size="10.00">sklearn_class = &lt;class &#39;sklearn.linear_model._base.LinearRegression&#39;&gt;,</text>
<text text-anchor="middle" x="234" y="-145" font-family="Monospace" font-size="10.00">x_cols = [&#39;carat&#39;, &#39;table&#39;, &#39;depth&#39;],</text>
<text text-anchor="middle" x="234" y="-134" font-family="Monospace" font-size="10.00">response_col = HPFmtStr(name=&#39;price_train&#39;),</text>
<text text-anchor="middle" x="234" y="-123" font-family="Monospace" font-size="10.00">hat_col = HPFmtStr(name=&#39;price_hat&#39;),</text>
<text text-anchor="middle" x="234" y="-112" font-family="Monospace" font-size="10.00">class_params = {&#39;fit_intercept&#39;: True},</text>
<text text-anchor="middle" x="234" y="-101" font-family="Monospace" font-size="10.00">w_col = &#39;&#39;</text>
</g>
<!-- ZScore#4&#45;&gt;SKLearn#4 -->
<g id="edge7" class="edge">
<title>ZScore#4&#45;&gt;SKLearn#4</title>
<path fill="none" stroke="black" d="M234,-215.93C234,-208.28 234,-198.82 234,-189.14"/>
<polygon fill="black" stroke="black" points="237.5,-189.04 234,-179.04 230.5,-189.04 237.5,-189.04"/>
</g>
<!-- Pipe#10 -->
<g id="node9" class="node">
<title>Pipe#10</title>
<polygon fill="white" stroke="white" points="326.5,-57 141.5,-57 141.5,-16 326.5,-16 326.5,-57"/>
<text text-anchor="middle" x="234" y="-45" font-family="Monospace" font-size="10.00">Pipe#10</text>
<text text-anchor="middle" x="234" y="-34" font-family="Monospace" font-size="10.00">apply_fun = &lt;ufunc &#39;expm1&#39;&gt;,</text>
<text text-anchor="middle" x="234" y="-23" font-family="Monospace" font-size="10.00">cols = [&#39;price_hat&#39;]</text>
</g>
<!-- SKLearn#4&#45;&gt;Pipe#10 -->
<g id="edge8" class="edge">
<title>SKLearn#4&#45;&gt;Pipe#10</title>
<path fill="none" stroke="black" d="M234,-93.94C234,-84.99 234,-75.7 234,-67.3"/>
<polygon fill="black" stroke="black" points="237.5,-67.24 234,-57.24 230.5,-67.24 237.5,-67.24"/>
</g>
</g>
</svg>
