<?xml version="1.0" encoding="UTF-8" standalone="no"?>
<!DOCTYPE svg PUBLIC "-//W3C//DTD SVG 1.1//EN"
 "http://www.w3.org/Graphics/SVG/1.1/DTD/svg11.dtd">
<!-- Generated by graphviz version 2.43.0 (0)
 -->
<!-- Title: %3 Pages: 1 -->
<svg width="476pt" height="515pt"
 viewBox="0.00 0.00 476.00 515.00" xmlns="http://www.w3.org/2000/svg" xmlns:xlink="http://www.w3.org/1999/xlink">
<g id="graph0" class="graph" transform="scale(1 1) rotate(0) translate(4 511)">
<title>%3</title>
<polygon fill="white" stroke="transparent" points="-4,4 -4,-511 472,-511 472,4 -4,4"/>
<g id="clust1" class="cluster">
<title>cluster_DataFramePipeline#9</title>
<polygon fill="lightgrey" stroke="lightgrey" points="8,-8 8,-499 460,-499 460,-8 8,-8"/>
</g>
<!-- DataFramePipeline#9 -->
<g id="node1" class="node">
<title>DataFramePipeline#9</title>
<polygon fill="white" stroke="white" points="299.5,-491 168.5,-491 168.5,-455 299.5,-455 299.5,-491"/>
<text text-anchor="middle" x="234" y="-470.5" font-family="Monospace" font-size="10.00">DataFramePipeline#9</text>
</g>
<!-- Winsorize#5 -->
<g id="node2" class="node">
<title>Winsorize#5</title>
<polygon fill="white" stroke="white" points="293.5,-408 174.5,-408 174.5,-367 293.5,-367 293.5,-408"/>
<text text-anchor="middle" x="234" y="-396" font-family="Monospace" font-size="10.00">Winsorize#5</text>
<text text-anchor="middle" x="234" y="-385" font-family="Monospace" font-size="10.00">limit = 0.05,</text>
<text text-anchor="middle" x="234" y="-374" font-family="Monospace" font-size="10.00">cols = &lt;ALL_COLS&gt;</text>
</g>
<!-- DataFramePipeline#9&#45;&gt;Winsorize#5 -->
<g id="edge1" class="edge">
<title>DataFramePipeline#9&#45;&gt;Winsorize#5</title>
<path fill="none" stroke="black" d="M234,-454.7C234,-444.21 234,-430.53 234,-418.34"/>
<polygon fill="black" stroke="black" points="237.5,-418.12 234,-408.12 230.5,-418.12 237.5,-418.12"/>
<text text-anchor="middle" x="264.5" y="-429" font-family="Monospace" font-size="10.00">transforms</text>
</g>
<!-- Pipe#6 -->
<g id="node3" class="node">
<title>Pipe#6</title>
<polygon fill="white" stroke="white" points="326.5,-330 141.5,-330 141.5,-289 326.5,-289 326.5,-330"/>
<text text-anchor="middle" x="234" y="-318" font-family="Monospace" font-size="10.00">Pipe#6</text>
<text text-anchor="middle" x="234" y="-307" font-family="Monospace" font-size="10.00">apply_fun = &lt;ufunc &#39;log1p&#39;&gt;,</text>
<text text-anchor="middle" x="234" y="-296" font-family="Monospace" font-size="10.00">cols = [&#39;price&#39;, &#39;carat&#39;]</text>
</g>
<!-- Winsorize#5&#45;&gt;Pipe#6 -->
<g id="edge2" class="edge">
<title>Winsorize#5&#45;&gt;Pipe#6</title>
<path fill="none" stroke="black" d="M234,-366.93C234,-358.77 234,-349.12 234,-340.13"/>
<polygon fill="black" stroke="black" points="237.5,-340.01 234,-330.01 230.5,-340.01 237.5,-340.01"/>
</g>
<!-- ZScore#3 -->
<g id="node4" class="node">
<title>ZScore#3</title>
<polygon fill="white" stroke="white" points="344.5,-252 123.5,-252 123.5,-216 344.5,-216 344.5,-252"/>
<text text-anchor="middle" x="234" y="-237" font-family="Monospace" font-size="10.00">ZScore#3</text>
<text text-anchor="middle" x="234" y="-226" font-family="Monospace" font-size="10.00">cols = [&#39;carat&#39;, &#39;table&#39;, &#39;depth&#39;]</text>
</g>
<!-- Pipe#6&#45;&gt;ZScore#3 -->
<g id="edge3" class="edge">
<title>Pipe#6&#45;&gt;ZScore#3</title>
<path fill="none" stroke="black" d="M234,-288.8C234,-280.7 234,-271.18 234,-262.41"/>
<polygon fill="black" stroke="black" points="237.5,-262.25 234,-252.25 230.5,-262.25 237.5,-262.25"/>
</g>
<!-- SKLearn#3 -->
<g id="node5" class="node">
<title>SKLearn#3</title>
<polygon fill="white" stroke="white" points="452.5,-179 15.5,-179 15.5,-94 452.5,-94 452.5,-179"/>
<text text-anchor="middle" x="234" y="-167" font-family="Monospace" font-size="10.00">SKLearn#3</text>
<text text-anchor="middle" x="234" y="-156" font-family="Monospace" font-size="10.00">sklearn_class = &lt;class &#39;sklearn.linear_model._base.LinearRegression&#39;&gt;,</text>
<text text-anchor="middle" x="234" y="-145" font-family="Monospace" font-size="10.00">x_cols = [&#39;carat&#39;, &#39;table&#39;, &#39;depth&#39;],</text>
<text text-anchor="middle" x="234" y="-134" font-family="Monospace" font-size="10.00">response_col = HPFmtStr(name=&#39;price&#39;),</text>
<text text-anchor="middle" x="234" y="-123" font-family="Monospace" font-size="10.00">hat_col = HPFmtStr(name=&#39;price_hat&#39;),</text>
<text text-anchor="middle" x="234" y="-112" font-family="Monospace" font-size="10.00">class_params = {&#39;fit_intercept&#39;: True},</text>
<text text-anchor="middle" x="234" y="-101" font-family="Monospace" font-size="10.00">w_col = &#39;&#39;</text>
</g>
<!-- ZScore#3&#45;&gt;SKLearn#3 -->
<g id="edge4" class="edge">
<title>ZScore#3&#45;&gt;SKLearn#3</title>
<path fill="none" stroke="black" d="M234,-215.93C234,-208.28 234,-198.82 234,-189.14"/>
<polygon fill="black" stroke="black" points="237.5,-189.04 234,-179.04 230.5,-189.04 237.5,-189.04"/>
</g>
<!-- Pipe#7 -->
<g id="node6" class="node">
<title>Pipe#7</title>
<polygon fill="white" stroke="white" points="326.5,-57 141.5,-57 141.5,-16 326.5,-16 326.5,-57"/>
<text text-anchor="middle" x="234" y="-45" font-family="Monospace" font-size="10.00">Pipe#7</text>
<text text-anchor="middle" x="234" y="-34" font-family="Monospace" font-size="10.00">apply_fun = &lt;ufunc &#39;expm1&#39;&gt;,</text>
<text text-anchor="middle" x="234" y="-23" font-family="Monospace" font-size="10.00">cols = [&#39;price_hat&#39;]</text>
</g>
<!-- SKLearn#3&#45;&gt;Pipe#7 -->
<g id="edge5" class="edge">
<title>SKLearn#3&#45;&gt;Pipe#7</title>
<path fill="none" stroke="black" d="M234,-93.94C234,-84.99 234,-75.7 234,-67.3"/>
<polygon fill="black" stroke="black" points="237.5,-67.24 234,-57.24 230.5,-67.24 237.5,-67.24"/>
</g>
</g>
</svg>
