<?xml version="1.0" encoding="UTF-8" standalone="no"?>
<!DOCTYPE svg PUBLIC "-//W3C//DTD SVG 1.1//EN"
 "http://www.w3.org/Graphics/SVG/1.1/DTD/svg11.dtd">
<!-- Generated by graphviz version 2.43.0 (0)
 -->
<!-- Title: %3 Pages: 1 -->
<svg width="214pt" height="315pt"
 viewBox="0.00 0.00 214.00 315.00" xmlns="http://www.w3.org/2000/svg" xmlns:xlink="http://www.w3.org/1999/xlink">
<g id="graph0" class="graph" transform="scale(1 1) rotate(0) translate(4 311)">
<title>%3</title>
<polygon fill="white" stroke="transparent" points="-4,4 -4,-311 210,-311 210,4 -4,4"/>
<g id="clust1" class="cluster">
<title>cluster_DataFramePipeline#32</title>
<polygon fill="lightgrey" stroke="lightgrey" points="8,-8 8,-299 198,-299 198,-8 8,-8"/>
</g>
<!-- DataFramePipeline#32 -->
<g id="node1" class="node">
<title>DataFramePipeline#32</title>
<polygon fill="white" stroke="white" points="171.5,-291 34.5,-291 34.5,-255 171.5,-255 171.5,-291"/>
<text text-anchor="middle" x="103" y="-270.5" font-family="Monospace" font-size="10.00">DataFramePipeline#32</text>
</g>
<!-- DeMean#5 -->
<g id="node2" class="node">
<title>DeMean#5</title>
<polygon fill="white" stroke="white" points="153.5,-208 52.5,-208 52.5,-172 153.5,-172 153.5,-208"/>
<text text-anchor="middle" x="103" y="-193" font-family="Monospace" font-size="10.00">DeMean#5</text>
<text text-anchor="middle" x="103" y="-182" font-family="Monospace" font-size="10.00">cols = [&#39;foo&#39;]</text>
</g>
<!-- DataFramePipeline#32&#45;&gt;DeMean#5 -->
<g id="edge1" class="edge">
<title>DataFramePipeline#32&#45;&gt;DeMean#5</title>
<path fill="none" stroke="black" d="M103,-254.82C103,-244.19 103,-230.31 103,-218.2"/>
<polygon fill="black" stroke="black" points="106.5,-218.15 103,-208.15 99.5,-218.15 106.5,-218.15"/>
<text text-anchor="middle" x="133.5" y="-229" font-family="Monospace" font-size="10.00">transforms</text>
</g>
<!-- Winsorize#10 -->
<g id="node3" class="node">
<title>Winsorize#10</title>
<polygon fill="white" stroke="white" points="165.5,-135 40.5,-135 40.5,-94 165.5,-94 165.5,-135"/>
<text text-anchor="middle" x="103" y="-123" font-family="Monospace" font-size="10.00">Winsorize#10</text>
<text text-anchor="middle" x="103" y="-112" font-family="Monospace" font-size="10.00">cols = &lt;ALL_COLS&gt;,</text>
<text text-anchor="middle" x="103" y="-101" font-family="Monospace" font-size="10.00">limit = 0.05</text>
</g>
<!-- DeMean#5&#45;&gt;Winsorize#10 -->
<g id="edge2" class="edge">
<title>DeMean#5&#45;&gt;Winsorize#10</title>
<path fill="none" stroke="black" d="M103,-171.95C103,-164.03 103,-154.37 103,-145.29"/>
<polygon fill="black" stroke="black" points="106.5,-145.05 103,-135.05 99.5,-145.05 106.5,-145.05"/>
</g>
<!-- Pipe#11 -->
<g id="node4" class="node">
<title>Pipe#11</title>
<polygon fill="white" stroke="white" points="189.5,-57 16.5,-57 16.5,-16 189.5,-16 189.5,-57"/>
<text text-anchor="middle" x="103" y="-45" font-family="Monospace" font-size="10.00">Pipe#11</text>
<text text-anchor="middle" x="103" y="-34" font-family="Monospace" font-size="10.00">cols = [&#39;bar&#39;],</text>
<text text-anchor="middle" x="103" y="-23" font-family="Monospace" font-size="10.00">apply_fun = &lt;ufunc &#39;sqrt&#39;&gt;</text>
</g>
<!-- Winsorize#10&#45;&gt;Pipe#11 -->
<g id="edge3" class="edge">
<title>Winsorize#10&#45;&gt;Pipe#11</title>
<path fill="none" stroke="black" d="M103,-93.93C103,-85.77 103,-76.12 103,-67.13"/>
<polygon fill="black" stroke="black" points="106.5,-67.01 103,-57.01 99.5,-67.01 106.5,-67.01"/>
</g>
</g>
</svg>
